HIERARCHY
ROOT Hips
{
  OFFSET 2.26061 22.2878 23.7974
  CHANNELS 6 Xposition Yposition Zposition Zrotation Xrotation Yrotation
  JOINT LeftUpLeg
  {
    OFFSET 8.64259 1.95398 -2.38835
    CHANNELS 3 Zrotation Xrotation Yrotation
    JOINT LeftLeg
    {
      OFFSET 43.7702 0 0
      CHANNELS 3 Zrotation Xrotation Yrotation
      JOINT LeftFoot
      {
        OFFSET 40.6238 0 0
        CHANNELS 3 Zrotation Xrotation Yrotation
        JOINT LeftToeBase
        {
          OFFSET 12.7242 0 0
          CHANNELS 3 Zrotation Xrotation Yrotation
          End Site
          {
            OFFSET 0 0 0
          }
        }
      }
    }
  }
  JOINT RightUpLeg
  {
    OFFSET -8.2249 1.95398 -2.59336
    CHANNELS 3 Zrotation Xrotation Yrotation
    JOINT RightLeg
    {
      OFFSET 43.5653 0 0
      CHANNELS 3 Zrotation Xrotation Yrotation
      JOINT RightFoot
      {
        OFFSET 40.6238 0 0
        CHANNELS 3 Zrotation Xrotation Yrotation
        JOINT RightToeBase
        {
          OFFSET 12.7242 0 0
          CHANNELS 3 Zrotation Xrotation Yrotation
          End Site
          {
            OFFSET 0 0 0
          }
        }
      }
    }
  }
  JOINT Spine
  {
    OFFSET 0.165834 0.87714 6.61349
    CHANNELS 3 Zrotation Xrotation Yrotation
    JOINT Spine1
    {
      OFFSET 7.38963 1.71661e-005 0
      CHANNELS 3 Zrotation Xrotation Yrotation
      JOINT Spine2
      {
        OFFSET 11.9445 1.14441e-005 0
        CHANNELS 3 Zrotation Xrotation Yrotation
        JOINT Spine3
        {
          OFFSET 14.7254 4.19617e-005 0
          CHANNELS 3 Zrotation Xrotation Yrotation
          JOINT Spine4
          {
            OFFSET 10.9679 0 0
            CHANNELS 3 Zrotation Xrotation Yrotation
            JOINT RightShoulder
            {
              OFFSET 2.46616 -1.6653 3.69651
              CHANNELS 3 Zrotation Xrotation Yrotation
              JOINT RightArm
              {
                OFFSET 13.0012 0 0
                CHANNELS 3 Zrotation Xrotation Yrotation
                JOINT RightForeArm
                {
                  OFFSET 28.7848 1.52588e-005 0
                  CHANNELS 3 Zrotation Xrotation Yrotation
                  JOINT RightHand
                  {
                    OFFSET 26.5688 1.52588e-005 0
                    CHANNELS 3 Zrotation Xrotation Yrotation
                    End Site
                    {
                      OFFSET 0 0 0
                    }
                  }
                }
              }
            }
            JOINT LeftShoulder
            {
              OFFSET 2.38034 -1.29275 -3.7523
              CHANNELS 3 Zrotation Xrotation Yrotation
              JOINT LeftArm
              {
                OFFSET 16.3182 6.10351e-005 0
                CHANNELS 3 Zrotation Xrotation Yrotation
                JOINT LeftForeArm
                {
                  OFFSET 27.0901 0 0
                  CHANNELS 3 Zrotation Xrotation Yrotation
                  JOINT LeftHand
                  {
                    OFFSET 24.5451 1.52588e-005 0
                    CHANNELS 3 Zrotation Xrotation Yrotation
                    End Site
                    {
                      OFFSET 0 0 0
                    }
                  }
                }
              }
            }
            JOINT Neck
            {
              OFFSET 5.0226 -0.0266342 0
              CHANNELS 3 Zrotation Xrotation Yrotation
              JOINT Head
              {
                OFFSET 6.69363 2.86102e-005 0
                CHANNELS 3 Zrotation Xrotation Yrotation
                End Site
                {
                  OFFSET 0 0 0
                }
              }
            }
          }
        }
      }
    }
  }
}
MOTION
Frames:	7
Frame Time:	0.0416667
35.8955 97.5513 -261.944 -62.6492 -86.204 -63.0114 -173.282 6.94075 86.8483 -13.3683 15.7226 -1.39034 65.5418 6.6258 7.08422 26.7955 -1.90242 2.50087 175.068 5.04281 92.1849 -13.8444 -9.61319 -1.95986 68.3111 -4.01506 -2.13769 27.7111 0.0758082 -1.75312 -0.104756 7.09252 -89.9455 12.6889 -0.181993 0.130326 1.01796 -0.176088 0.138215 -21.5173 -0.212758 0.069606 -1.50463 -0.212752 0.0696086 93.9322 -53.3315 -94.2572 25.9931 -6.56151 4.36372 -9.03055 -27.1445 -41.1784 -4.47429 -0.562933 0.252089 -102.178 -53.3586 62.169 -19.7774 11.9938 3.51086 3.88045 11.044 -32.3664 9.44075 0.69944 3.2547 9.7881 0.863281 0.912393 -1.76315 0.699104 1.59692 
36.0857 97.4101 -261.309 -54.6158 -86.5646 -55.11 -173.389 7.00632 86.5416 -13.8549 16.53 -1.46829 65.7793 7.49513 8.13062 27.4965 -1.51639 4.06284 175.232 5.48591 92.1193 -15.1564 -8.52405 -2.24668 69.0869 -4.19905 -2.19793 28.2943 0.0663107 -1.3288 -0.124076 7.05876 -90.0224 12.7565 -0.257071 -0.0141548 1.08556 -0.257453 -0.00282931 -21.4498 -0.240939 -0.0907618 -1.43714 -0.240936 -0.0907626 93.2115 -52.1725 -95.5162 26.3802 -6.16247 5.83751 -7.88608 -24.8833 -41.7245 -3.9813 -0.61885 2.75112 -103.276 -54.1419 60.9495 -19.5047 12.2196 3.59208 3.2595 10.453 -32.1772 10.7132 0.865266 3.94608 8.77083 1.10273 3.22664 0.0281741 0.461534 -0.383447 
36.7241 97.097 -260.351 -51.3586 -86.4327 -50.9953 -173.822 7.95158 86.5754 -16.8157 15.1702 -0.692992 67.79 9.25931 8.28182 27.9686 -1.04864 3.51957 176.112 5.59885 92.8303 -16.2712 -7.55214 -2.72252 69.9695 -4.68764 -2.43799 29.9084 0.136301 -1.48028 -0.0559162 7.04618 -90.0989 12.7813 -0.158316 -0.178798 1.11037 -0.166031 -0.171666 -21.4247 -0.0972628 -0.21811 -1.41206 -0.0972584 -0.218114 93.4991 -52.1406 -95.0891 26.7955 -5.5314 6.52946 -11.3546 -24.622 -45.9436 -1.81727 -0.618962 5.12995 -103.03 -53.9851 61.2286 -19.9044 12.2423 3.52846 3.22278 10.3418 -31.9976 10.2141 0.704227 2.83076 8.82303 0.93352 2.27275 0.224285 0.488583 0.0284312 
37.0774 96.4478 -259.197 -49.7491 -86.4888 -49.3793 -174.289 8.81601 86.0459 -20.352 14.9656 -0.297728 69.7383 11.1509 8.88569 29.2819 0.0411595 3.67039 177.35 8.47408 93.2676 -23.125 -4.00939 -3.45078 71.6269 -5.54129 -2.80942 34.0963 0.304253 -0.438247 -0.0595649 7.08173 -90.0954 12.7101 -0.163838 -0.171416 1.03912 -0.171222 -0.164062 -21.496 -0.10475 -0.212738 -1.48333 -0.104749 -0.212744 93.3192 -52.2954 -95.3348 26.5806 -5.48934 6.97835 -10.9624 -24.4245 -45.9437 -2.33236 -0.645119 5.24398 -102.966 -54.0848 61.3541 -20.0621 12.6271 3.7898 3.63868 10.675 -32.9319 9.84777 0.662204 2.65714 8.4481 0.886761 2.26937 1.08592 0.444564 -0.0949902 
37.5104 95.7147 -257.839 -52.3424 -85.3223 -52.6277 -174.593 9.51317 84.9197 -22.6303 14.1441 -0.381594 71.1338 12.631 10.2343 28.1298 -0.485982 -0.266054 178.417 16.7724 92.8421 -37.8195 -3.39065 -3.99605 70.2999 -5.31409 -2.77319 41.3368 0.306109 -7.07845 -0.0358652 7.14049 -89.96 12.5929 -0.0520954 0.0859708 0.92193 -0.0482638 0.0881672 -21.6132 -0.0755354 0.0663411 -1.60057 -0.0755298 0.0663354 93.4219 -52.9015 -95.0832 26.308 -5.21073 6.63232 -11.6939 -24.9015 -46.4446 -6.54691 -0.90377 4.99221 -102.726 -53.8452 61.5931 -19.0846 15.0336 3.89597 3.68955 10.6001 -36.1702 10.2224 0.894955 4.54243 8.22669 1.05616 1.53568 1.63706 0.785868 0.632308 
37.8043 95.668 -255.812 -44.3675 -86.7726 -44.9982 -174.717 7.19702 84.5863 -21.8534 15.2855 -0.367956 71.2359 12.9766 9.54248 30.0447 0.861571 1.6281 178.562 22.2816 92.5566 -43.4522 -2.95681 -3.80513 69.7535 -4.98261 -2.62885 42.629 0.192815 -8.82781 -0.340327 7.34652 -89.9676 12.1816 -0.661078 0.138186 0.510847 -0.654355 0.167144 -22.0257 -0.672056 -0.0669012 -2.01304 -0.672046 -0.0668942 93.135 -52.9269 -95.5071 26.2207 -5.26006 7.19673 -9.78282 -23.9613 -44.7946 -5.98387 -0.764883 3.61449 -103.588 -54.1537 60.5265 -17.8885 16.1945 3.49819 4.21944 10.411 -38.6152 9.09052 0.593003 2.44717 6.47619 1.5178 1.92973 2.49727 1.24024 1.34337 
38.0284 95.694 -252.997 -25.8265 -87.0647 -25.516 -174.292 4.66747 85.6473 -19.8335 15.8512 -0.211576 72.5295 14.1385 8.80223 29.5453 0.51652 0.972365 177.909 25.8481 93.1744 -36.0917 -1.73476 -2.55099 67.8003 -4.02075 -2.17324 41.4386 0.243296 -8.40121 -0.509058 7.44116 -90.1141 11.9918 -1.06592 -0.112246 0.321349 -1.06983 -0.0652206 -22.2169 -0.982913 -0.427443 -2.20427 -0.982908 -0.427444 93.2648 -53.5789 -95.2072 25.5076 -5.36332 8.72673 -9.84115 -23.1584 -45.972 -4.77353 -0.772072 5.0904 -103.347 -53.6168 60.6505 -17.4802 16.9553 2.15601 5.34566 10.1379 -42.0124 8.92179 0.71136 3.65999 5.39627 0.997906 1.00538 2.46366 0.9345 1.96461 
